<?xml version="1.0" encoding="UTF-8"?>
<!DOCTYPE svg PUBLIC "-//W3C//DTD SVG 1.1//EN" "http://www.w3.org/Graphics/SVG/1.1/DTD/svg11.dtd">
<!-- Creator: CorelDRAW X5 -->
<svg xmlns="http://www.w3.org/2000/svg" xml:space="preserve" width="210mm" height="297mm" style="shape-rendering:geometricPrecision; text-rendering:geometricPrecision; image-rendering:optimizeQuality; fill-rule:evenodd; clip-rule:evenodd"
viewBox="0 0 21000 29700"
 xmlns:xlink="http://www.w3.org/1999/xlink">
 <defs>
  <style type="text/css">
   <![CDATA[
    .fil5 {fill:#33B4DB}
    .fil0 {fill:#676559}
    .fil4 {fill:#67C956}
    .fil1 {fill:#C4252A}
    .fil2 {fill:#D0654A}
    .fil3 {fill:#ECD732}
    .fil6 {fill:#FEFEFE;fill-rule:nonzero}
   ]]>
  </style>
 </defs>
 <g id="Warstwa_x0020_1">
  <metadata id="CorelCorpID_0Corel-Layer"/>
  <g id="_6948064">
   <path class="fil0" d="M7310 9087l6379 0c3037,0 5500,2463 5500,5500l0 526c0,3037 -2463,5500 -5500,5500l-6379 0c-3037,0 -5500,-2463 -5500,-5500l0 -526c0,-3037 2463,-5500 5500,-5500z"/>
   <path class="fil1" d="M16408 11040c143,238 273,486 388,741l1610 0c-154,-261 -330,-509 -525,-741l-1474 0 1 0z"/>
   <path class="fil1" d="M4256 11781c115,-256 245,-503 388,-741l-1534 0c-194,232 -370,479 -525,741l1671 0 1 0z"/>
   <path class="fil2" d="M17139 12670c71,237 130,479 176,725l1738 0c-54,-248 -126,-490 -212,-725l-1702 0 0 0z"/>
   <path class="fil2" d="M3737 13395c46,-246 105,-488 176,-725l-1763 0c-87,235 -158,477 -212,725l1799 0 0 0z"/>
   <path class="fil3" d="M17442 14353c8,133 11,266 11,401 0,120 -3,240 -9,360l1747 0 0 1 0 0c0,-8 0,-14 0,-22l0 -526c0,-72 -2,-143 -5,-214l-1745 0 0 0z"/>
   <path class="fil3" d="M1812 15115l0 -1 1807 0c-6,-119 -9,-240 -9,-360 0,-134 4,-268 11,-401l-1805 0c-3,71 -5,142 -5,214l0 526c0,8 0,14 0,22l0 0z"/>
   <path class="fil4" d="M17345 16004c-44,256 -102,506 -172,752l1759 0c78,-243 139,-495 182,-752l-1768 0 0 0z"/>
   <path class="fil4" d="M3880 16755c-70,-245 -128,-496 -172,-752l-1829 0c44,257 104,507 182,752l1819 0z"/>
   <path class="fil5" d="M16863 17644c-115,263 -244,517 -388,762l1607 0c182,-240 345,-494 486,-762l-1705 0 0 0z"/>
   <path class="fil5" d="M4587 18407c-144,-245 -274,-499 -388,-762l-1765 0c141,268 304,523 486,762l1668 0z"/>
  </g>
  <g id="_306556896">
   <g>
    <path class="fil6" d="M7248 13848c-397,0 -744,72 -1042,216l0 -651c0,-103 29,-176 86,-220 57,-44 149,-66 277,-66l970 0c129,0 222,22 279,66 55,44 85,117 85,220l0 26 1863 0 0 -304c0,-443 -162,-794 -485,-1052 -323,-258 -762,-387 -1317,-387l-1819 0c-555,0 -994,129 -1317,387 -323,258 -485,609 -485,1052l0 3063c0,443 162,794 485,1052 323,258 762,387 1317,387l1819 0c555,0 994,-129 1317,-387 323,-258 485,-609 485,-1052l0 -911c0,-443 -162,-794 -485,-1052 -323,-258 -762,-387 -1317,-387l-716 0zm292 1382c129,0 222,22 279,66 55,44 85,117 85,220l0 405c0,103 -28,176 -85,220 -57,44 -151,66 -279,66l-970 0c-129,0 -220,-22 -277,-66 -57,-44 -86,-117 -86,-220l0 -691 1334 0z"/>
   </g>
   <g>
    <path class="fil6" d="M10600 16413l3295 0 0 1223 1930 0 0 -1223 936 0 0 -1421 -936 0 0 -3296 -2255 0 -2969 3050 0 1668zm1930 -1421l1365 -1391 0 1391 -1365 0z"/>
   </g>
  </g>
 </g>
</svg>
